# xmcd
# 
# Track frame offsets:
#     150
#     20440
#     38397
#     53417
#     74340
#     93638
#     115941
#     132886
#     141673
#     155515
#     169998
#     178437
#     192507
# 
# Disc length: 2780
# 
# Revision: 1
# Processed by: cddbd v1.5.2PL0 Copyright (c) Steve Scherf et al.
# Submitted via: fre:ac v1.0.27
# 
DISCID=bc0ada0d
DTITLE=Chatham County Line - IV
DYEAR=2008
DGENRE=Bluegrass
TTITLE0=Chip of a Star
TTITLE1=The Carolinian
TTITLE2=Let It Rock
TTITLE3=One More Minute
TTITLE4=Birmingham Jail
TTITLE5=Sweet Eviction
TTITLE6=I Got Worry
TTITLE7=Clear Blue Sky
TTITLE8=She
TTITLE9=Whipping Boy
TTITLE10=Paige
TTITLE11=Country Boy/City Boy
TTITLE12=Thanks
EXTD=
EXTT0=
EXTT1=
EXTT2=
EXTT3=
EXTT4=
EXTT5=
EXTT6=
EXTT7=
EXTT8=
EXTT9=
EXTT10=
EXTT11=
EXTT12=
PLAYORDER=
